<?xml version="1.0" encoding="iso-8859-1"?>
<!-- Generator: Adobe Illustrator 18.0.0, SVG Export Plug-In . SVG Version: 6.00 Build 0)  -->
<!DOCTYPE svg PUBLIC "-//W3C//DTD SVG 1.1//EN" "http://www.w3.org/Graphics/SVG/1.1/DTD/svg11.dtd">
<svg version="1.1" id="Capa_1" xmlns="http://www.w3.org/2000/svg" xmlns:xlink="http://www.w3.org/1999/xlink" x="0px" y="0px"
	 viewBox="0 0 297 297" style="enable-background:new 0 0 297 297;" xml:space="preserve">
<path d="M282.89,264.691l-48.249-50.026c6.167-1.772,10.387-4.825,13.766-7.282c4.23-3.077,6.784-4.934,12.948-4.934
	c4.031,0,7.665-2.428,9.207-6.151c1.541-3.724,0.69-8.01-2.16-10.859l-54.807-54.807c1.328-0.815,2.47-1.64,3.462-2.361
	c2.657-1.931,3.65-2.653,6.68-2.653c4.031,0,7.665-2.428,9.207-6.151c1.541-3.725,0.688-8.01-2.16-10.86l-55.207-55.207
	l-0.024-0.734l10.567-13.577c2.031-2.608,2.636-6.055,1.613-9.198c-1.021-3.146-3.536-5.578-6.712-6.495l-16.528-4.773
	l-9.646-14.244C152.992,1.64,149.9,0,146.595,0c-3.307,0-6.397,1.64-8.251,4.377l-9.646,14.244l-16.529,4.773
	c-3.176,0.917-5.69,3.351-6.713,6.495c-1.021,3.143-0.417,6.591,1.614,9.199l10.567,13.576l-0.154,4.675l-51.267,51.267
	c-2.849,2.851-3.701,7.136-2.16,10.86c1.542,3.724,5.176,6.151,9.207,6.151c3.029,0,4.022,0.723,6.678,2.653
	c0.992,0.722,2.135,1.548,3.464,2.361l-54.807,54.807c-2.85,2.85-3.701,7.136-2.16,10.859c1.542,3.724,5.176,6.151,9.207,6.151
	c6.162,0,8.716,1.856,12.946,4.934c3.379,2.457,7.599,5.511,13.766,7.283L14.11,264.691c-2.775,2.878-3.564,7.135-2,10.814
	c1.563,3.68,5.174,6.068,9.172,6.068c7.369,0,10.545,2.312,15.353,5.81C42.521,291.668,49.846,297,63.671,297
	c13.847,0,21.181-5.333,27.074-9.619c4.809-3.496,7.986-5.807,15.353-5.807c7.343,0,10.514,2.308,15.313,5.8
	c5.893,4.289,13.226,9.626,27.078,9.626c13.852,0,21.185-5.337,27.077-9.625c4.801-3.493,7.971-5.801,15.315-5.801
	c7.369,0,10.548,2.311,15.358,5.808c5.895,4.285,13.23,9.618,27.08,9.618c13.829,0,21.155-5.332,27.044-9.616
	c4.808-3.498,7.984-5.81,15.355-5.81c3.998,0,7.608-2.389,9.172-6.068C286.453,271.826,285.665,267.569,282.89,264.691z
	 M137.691,36.769c2.238-0.646,4.18-2.058,5.486-3.986l3.417-5.047l3.418,5.047c1.307,1.93,3.248,3.34,5.486,3.986l5.855,1.69
	l-3.745,4.81c-1.432,1.84-2.173,4.122-2.095,6.452l0.201,6.088l-5.729-2.074c-1.096-0.396-2.243-0.594-3.392-0.594
	c-1.147,0-2.296,0.198-3.392,0.594l-5.729,2.074l0.201-6.088c0.078-2.33-0.663-4.612-2.095-6.452l-3.745-4.81L137.691,36.769z
	 M123.509,79.499c2.198,0.829,4.647,0.877,6.909,0.059l16.177-5.855l16.177,5.855c1.103,0.399,2.25,0.595,3.391,0.595
	c2.077,0,4.132-0.649,5.858-1.903c0.043-0.031,0.079-0.068,0.121-0.101l33.663,33.664c-0.159,0.115-0.315,0.229-0.468,0.339
	c-2.657,1.932-3.65,2.655-6.682,2.655c-3.03,0-4.024-0.724-6.681-2.654c-3.54-2.574-8.891-6.465-18.402-6.465
	c-9.51,0-14.86,3.891-18.4,6.465c-2.655,1.932-3.648,2.654-6.677,2.654c-3.029,0-4.022-0.724-6.678-2.654
	c-3.54-2.574-8.891-6.465-18.399-6.465c-9.51,0-14.86,3.891-18.4,6.465c-2.654,1.931-3.649,2.654-6.678,2.654
	c-3.028,0-4.021-0.723-6.677-2.654c-0.152-0.11-0.309-0.224-0.468-0.339L123.509,79.499z M54.721,187.501l55.016-55.015
	c2.989-1.298,5.226-2.922,7.004-4.216c2.654-1.932,3.648-2.653,6.678-2.653c3.029,0,4.022,0.722,6.677,2.653
	c3.541,2.575,8.891,6.466,18.4,6.466c9.51,0,14.858-3.891,18.399-6.466c2.655-1.931,3.649-2.653,6.678-2.653
	c3.032,0,4.025,0.723,6.682,2.654c1.78,1.295,4.02,2.921,7.014,4.219l55.011,55.011c-2.142,1.254-3.965,2.579-5.594,3.763
	c-4.232,3.077-6.785,4.936-12.952,4.936c-6.165,0-8.719-1.857-12.951-4.934c-5.075-3.691-12.026-8.746-24.673-8.746
	c-12.646,0-19.596,5.056-24.671,8.746c-4.229,3.076-6.782,4.934-12.945,4.934s-8.716-1.857-12.946-4.934
	c-5.075-3.691-12.025-8.746-24.67-8.746c-12.645,0-19.594,5.055-24.669,8.746c-4.23,3.076-6.783,4.934-12.946,4.934
	c-6.163,0-8.717-1.857-12.946-4.934C58.685,190.081,56.863,188.756,54.721,187.501z M199.061,207.384
	c15.553,13.43,57.51,58.727,57.51,58.727c-3.073,1.622-5.615,3.473-7.934,5.159c-4.8,3.493-7.972,5.801-15.317,5.801
	c-7.372,0-10.55-2.311-15.361-5.809c-5.895-4.284-13.23-9.617-27.077-9.617c-13.828,0-21.155,5.332-27.041,9.615
	c-4.808,3.499-7.983,5.811-15.352,5.811c-7.368,0-10.544-2.312-15.351-5.811c-5.887-4.283-13.213-9.615-27.04-9.615
	c-13.847,0-21.18,5.333-27.073,9.619c-4.81,3.496-7.986,5.807-15.354,5.807c-7.34,0-10.511-2.308-15.309-5.801
	c-2.318-1.685-4.86-3.536-7.934-5.158c0,0,41.951-45.297,57.501-58.729c3.958-3.419,6.783-4.934,12.946-4.934
	c6.164,0,8.717,1.856,12.947,4.934c5.075,3.691,12.025,8.746,24.669,8.746c12.643,0,19.593-5.055,24.668-8.746
	c4.23-3.077,6.783-4.934,12.948-4.934C192.275,202.449,195.101,203.965,199.061,207.384z"/>
<line  x1 = "123" y1 = "509" x2 = "80" y2 = "30" style="stroke:rgb(0,0,255);stroke-width:2"></line>
<g>
</g>
<g>
</g>
<g>
</g>
<g>
</g>
<g>
</g>
<g>
</g>
<g>
</g>
<g>
</g>
<g>
</g>
<g>
</g>
<g>
</g>
<g>
</g>
<g>
</g>
<g>
</g>
<g>
</g>
</svg>
